<svg width="193" height="64" viewBox="0 0 193 64" fill="none" xmlns="http://www.w3.org/2000/svg">
<path d="M187.024 38.7086L192.379 42.2595C190.641 44.8057 186.485 49.1745 179.299 49.1745C170.376 49.1745 163.73 42.3064 163.73 33.5692C163.73 24.2719 170.446 17.9644 178.548 17.9644C186.696 17.9644 190.688 24.4117 191.98 27.8925L192.684 29.6681L171.691 38.3115C173.288 41.442 175.777 43.0305 179.299 43.0305C182.822 43.0305 185.263 41.3017 187.024 38.7086V38.7086ZM170.564 33.0791L184.583 27.2854C183.808 25.3466 181.507 23.9685 178.759 23.9685C175.26 23.9685 170.399 27.0521 170.564 33.0791Z" fill="#FF302F"/>
<path d="M153.609 2.0558H160.372V47.7495H153.609V2.05542V2.0558Z" fill="#20B15A"/>
<path d="M142.948 19.1788H149.476V46.9314C149.476 58.448 142.642 63.1903 134.564 63.1903C126.956 63.1903 122.377 58.0978 120.663 53.963L126.651 51.4865C127.731 54.0328 130.338 57.0467 134.564 57.0467C139.754 57.0467 142.948 53.846 142.948 47.8659V45.6234H142.713C141.163 47.492 138.204 49.1739 134.447 49.1739C126.604 49.1739 119.418 42.3759 119.418 33.6159C119.418 24.8087 126.604 17.9409 134.447 17.9409C138.181 17.9409 141.163 19.5995 142.713 21.4217H142.948V19.1792V19.1788ZM143.417 33.6159C143.417 28.1027 139.73 24.0845 135.034 24.0845C130.29 24.0845 126.298 28.1027 126.298 33.6159C126.298 39.0587 130.29 43.0067 135.034 43.0067C139.731 43.0303 143.417 39.0587 143.417 33.6159H143.417Z" fill="#3686F7"/>
<path d="M82.2942 33.499C82.2942 42.493 75.2497 49.1038 66.608 49.1038C57.9667 49.1038 50.9219 42.4697 50.9219 33.499C50.9219 24.4585 57.9667 17.8708 66.608 17.8708C75.2497 17.8708 82.2942 24.4585 82.2942 33.499ZM75.4374 33.499C75.4374 27.8927 71.3512 24.0377 66.608 24.0377C61.8648 24.0377 57.7786 27.8927 57.7786 33.499C57.7786 39.0587 61.8648 42.9602 66.608 42.9602C71.3516 42.9602 75.4374 39.0587 75.4374 33.499Z" fill="#FF302F"/>
<path d="M116.552 33.5692C116.552 42.5632 109.507 49.1741 100.866 49.1741C92.2242 49.1741 85.1797 42.5629 85.1797 33.5692C85.1797 24.5287 92.2242 17.9644 100.866 17.9644C109.507 17.9644 116.552 24.5055 116.552 33.5692V33.5692ZM109.671 33.5692C109.671 27.963 105.586 24.108 100.842 24.108C96.0989 24.108 92.0127 27.963 92.0127 33.5692C92.0127 39.129 96.0989 43.0305 100.842 43.0305C105.609 43.0305 109.671 39.1057 109.671 33.5692Z" fill="#FFBA40"/>
<path d="M25.1373 42.3295C15.298 42.3295 7.59613 34.4335 7.59613 24.6452C7.59613 14.8573 15.298 6.96135 25.1373 6.96135C30.4444 6.96135 34.3187 9.04035 37.1836 11.7036L41.9038 7.00822C37.9118 3.20047 32.5813 0.303223 25.1373 0.303223C11.6585 0.303598 0.316406 11.2367 0.316406 24.6452C0.316406 38.0545 11.6585 48.9872 25.1373 48.9872C32.417 48.9872 37.9118 46.6045 42.2091 42.166C46.6236 37.774 47.9855 31.6067 47.9855 26.6076C47.9855 25.0424 47.7978 23.4306 47.5863 22.2392H25.1373V28.7335H41.1288C40.6591 32.7985 39.3676 35.5784 37.4655 37.4702C35.1642 39.7832 31.5247 42.3295 25.1373 42.3295V42.3295Z" fill="#3686F7"/>
</svg>
