<svg width="151" height="61" viewBox="0 0 151 61" fill="none" xmlns="http://www.w3.org/2000/svg">
<path d="M0.574219 0.19043V4.2915H29.743V0.19043H0.574219ZM33.8757 0.19043V4.2915H75.4425C75.4425 4.2915 71.1966 0.19043 65.5732 0.19043H33.8757ZM83.5967 0.19043V4.2915H108.744L107.251 0.19043H83.5967ZM126.773 0.19043L125.281 4.2915H150.2V0.19043H126.773ZM0.574219 8.16604V12.2671H29.743V8.16604H0.574219ZM33.8757 8.17189V12.2671H80.2659C80.2659 12.2671 79.7242 9.11082 78.7791 8.17189H33.8757ZM83.5967 8.17189V12.2671H111.501L110.12 8.17189H83.5967ZM123.788 8.17189L122.406 12.2671H150.2V8.17189H123.788ZM8.95666 16.1416V20.248H21.5889V16.1416H8.95666ZM42.2581 16.1416V20.248H54.8903V16.1416H42.2581ZM67.1771 16.1416V20.248H79.8093C79.8093 20.248 80.6113 18.0792 80.6113 16.1414H67.1771V16.1416ZM91.9791 16.1416V20.248H114.375L112.883 16.1414H91.9791V16.1416ZM121.037 16.1416L119.538 20.2483H142.045V16.1416H121.037ZM8.95666 24.1231V28.2236H21.5889V24.1231H8.95666ZM42.2581 24.1231V28.2236H74.5235C74.5235 28.2236 77.2226 26.1192 78.0825 24.1225H42.2581V24.1231ZM91.9791 24.1231V28.2236H104.611V25.9407L105.413 28.2236H128.553L129.413 25.9407V28.2236H142.045V24.1231H118.332L117.074 27.597L115.809 24.1231H91.9791ZM8.95666 32.0981V36.1992H21.5889V32.0981H8.95666ZM42.2581 32.0981V36.1992H78.0825C77.2223 34.209 74.5235 32.0981 74.5235 32.0981H42.2581ZM91.9791 32.0981V36.1992H104.611V32.0981H91.9791ZM106.906 32.0981L108.434 36.1992H125.784L127.236 32.0981H106.906ZM129.413 32.0981V36.1992H142.045V32.0981H129.413ZM8.95666 40.0737V44.1748H21.5889V40.0737H8.95666ZM42.2581 40.0737V44.1748H54.8903V40.0737H42.2581ZM67.1771 40.0737V44.1748H80.6113C80.6113 42.2393 79.8093 40.0737 79.8093 40.0737H67.1771ZM91.9791 40.0737V44.1748H104.611V40.0737H91.9791ZM109.774 40.0737L111.255 44.1748H122.886L124.379 40.0737H109.774ZM129.413 40.0737V44.1748H142.045V40.0737H129.413ZM0.802511 48.0496V52.1563H29.9713V48.0494H0.802511V48.0496ZM33.8757 48.0496V52.1563H78.7791C79.7242 51.2159 80.2659 48.0494 80.2659 48.0494H33.8757V48.0496ZM83.825 48.0496V52.1563H104.611V48.0494H83.825V48.0496ZM112.648 48.0496L114.17 52.1563H120.088L121.517 48.0494H112.648V48.0496ZM129.413 48.0496V52.1563H150.428V48.0494H129.413V48.0496ZM0.802511 56.0308V60.1319H29.9713V56.0308H0.802511ZM33.8757 56.0308V60.1257H65.5732C71.1966 60.1257 75.4425 56.0305 75.4425 56.0305H33.8757V56.0308ZM83.825 56.0308V60.1319H104.611V56.0308H83.825ZM115.534 56.0308L116.998 60.1199L117.249 60.1257L118.736 56.0305H115.534V56.0308ZM129.413 56.0308V60.1319H150.428V56.0308H129.413Z" fill="#1F70C1"/>
</svg>
